<?xml version="1.0" encoding="UTF-8" standalone="no"?>
<!-- Created with Inkscape (http://www.inkscape.org/) -->

<svg
   xmlns:dc="http://purl.org/dc/elements/1.1/"
   xmlns:cc="http://creativecommons.org/ns#"
   xmlns:rdf="http://www.w3.org/1999/02/22-rdf-syntax-ns#"
   xmlns:svg="http://www.w3.org/2000/svg"
   xmlns="http://www.w3.org/2000/svg"
   xmlns:sodipodi="http://sodipodi.sourceforge.net/DTD/sodipodi-0.dtd"
   xmlns:inkscape="http://www.inkscape.org/namespaces/inkscape"
   width="1024"
   height="1024"
   viewBox="0 0 270.93335 270.93336"
   version="1.1"
   id="svg1055"
   inkscape:version="0.92.2 5c3e80d, 2017-08-06"
   sodipodi:docname="lliana_1024.svg">
  <defs
     id="defs1049" />
  <sodipodi:namedview
     id="base"
     pagecolor="#ffffff"
     bordercolor="#666666"
     borderopacity="1.0"
     inkscape:pageopacity="0.0"
     inkscape:pageshadow="2"
     inkscape:zoom="0.35"
     inkscape:cx="52.000009"
     inkscape:cy="-299.42858"
     inkscape:document-units="mm"
     inkscape:current-layer="layer1"
     showgrid="false"
     fit-margin-top="0"
     fit-margin-left="0"
     fit-margin-right="0"
     fit-margin-bottom="0"
     units="px"
     inkscape:showpageshadow="false"
     inkscape:window-width="1920"
     inkscape:window-height="1151"
     inkscape:window-x="0"
     inkscape:window-y="1"
     inkscape:window-maximized="1" />
  <metadata
     id="metadata1052">
    <rdf:RDF>
      <cc:Work
         rdf:about="">
        <dc:format>image/svg+xml</dc:format>
        <dc:type
           rdf:resource="http://purl.org/dc/dcmitype/StillImage" />
        <dc:title />
      </cc:Work>
    </rdf:RDF>
  </metadata>
  <g
     inkscape:label="Layer 1"
     inkscape:groupmode="layer"
     id="layer1"
     transform="translate(183.84762,201.32385)">
    <g
       transform="matrix(7.37489,0,0,7.37489,133.04391,-1576.4185)"
       id="g1858"
       style="fill:#607d8b;stroke:none"
       inkscape:export-filename="/Users/tl/Design/LLiana/Exports/favicon_1024.png"
       inkscape:export-xdpi="96"
       inkscape:export-ydpi="96">
      <path
         inkscape:connector-curvature="0"
         id="path1814"
         style="font-style:normal;font-variant:normal;font-weight:normal;font-stretch:normal;font-size:23.98888969px;line-height:1000%;font-family:Righteous;-inkscape-font-specification:Righteous;text-align:center;letter-spacing:0.00529167px;word-spacing:0px;text-anchor:middle;fill:#607d8b;fill-opacity:1;stroke:none;stroke-width:0.14038888px;stroke-linecap:butt;stroke-linejoin:miter;stroke-opacity:1"
         d="M -25.663146,202.52237 Q -25.663146,202.74612 -25.582346,202.945 -25.501554,203.13766 -25.358603,203.28062 -25.21566,203.42357 -25.022985,203.50436 -24.830317,203.59138 -24.606567,203.59138 -24.389047,203.59138 -24.190156,203.50436 -23.997488,203.42357 -23.848328,203.28062 -23.705378,203.13766 -23.618362,202.945 -23.537569,202.74612 -23.537569,202.52237 -23.537569,202.30483 -23.618362,202.11218 -23.705378,201.91951 -23.848328,201.77655 -23.997488,201.6336 -24.190156,201.55281 -24.389047,201.46579 -24.606567,201.46579 -24.830317,201.46579 -25.022985,201.55281 -25.21566,201.6336 -25.358603,201.77655 -25.501554,201.91951 -25.582346,202.11218 -25.663146,202.30483 -25.663146,202.52237 Z" />
      <g
         transform="matrix(0.63223588,0,0,0.63223588,-123.32799,27.133354)"
         id="g1824"
         style="fill:#607d8b;stroke:none">
        <path
           d="M 139.02796,269.10484 130.71225,277.42054 142.58946,289.29775 144.96656,286.92066 135.46645,277.42055 141.40506,271.48194 Z"
           style="font-style:normal;font-variant:normal;font-weight:normal;font-stretch:normal;font-size:23.98888969px;line-height:1000%;font-family:Righteous;-inkscape-font-specification:Righteous;text-align:center;letter-spacing:0.00529167px;word-spacing:0px;text-anchor:middle;fill:#607d8b;fill-opacity:1;stroke:none;stroke-width:0.26458332px;stroke-linecap:butt;stroke-linejoin:miter;stroke-opacity:1"
           id="path1816"
           inkscape:connector-curvature="0" />
        <path
           d="M 148.53674,269.10485 140.22104,277.42055 152.09824,289.29776 154.47534,286.92066 144.97523,277.42056 150.91384,271.48195 Z"
           style="font-style:normal;font-variant:normal;font-weight:normal;font-stretch:normal;font-size:23.98888969px;line-height:1000%;font-family:Righteous;-inkscape-font-specification:Righteous;text-align:center;letter-spacing:0.00529167px;word-spacing:0px;text-anchor:middle;fill:#607d8b;fill-opacity:1;stroke:none;stroke-width:0.26458332px;stroke-linecap:butt;stroke-linejoin:miter;stroke-opacity:1"
           id="path1818"
           inkscape:connector-curvature="0" />
        <path
           inkscape:connector-curvature="0"
           id="path1820"
           style="font-style:normal;font-variant:normal;font-weight:normal;font-stretch:normal;font-size:23.98888969px;line-height:1000%;font-family:Righteous;-inkscape-font-specification:Righteous;text-align:center;letter-spacing:0.00529167px;word-spacing:0px;text-anchor:middle;fill:#607d8b;fill-opacity:1;stroke:none;stroke-width:0.26458332px;stroke-linecap:butt;stroke-linejoin:miter;stroke-opacity:1"
           d="M 173.28472,269.10484 181.60043,277.42054 169.72322,289.29775 167.34612,286.92066 176.84623,277.42055 170.90762,271.48194 Z" />
        <path
           inkscape:connector-curvature="0"
           id="path1822"
           style="font-style:normal;font-variant:normal;font-weight:normal;font-stretch:normal;font-size:23.98888969px;line-height:1000%;font-family:Righteous;-inkscape-font-specification:Righteous;text-align:center;letter-spacing:0.00529167px;word-spacing:0px;text-anchor:middle;fill:#607d8b;fill-opacity:1;stroke:none;stroke-width:0.26458332px;stroke-linecap:butt;stroke-linejoin:miter;stroke-opacity:1"
           d="M 163.77594,269.10485 172.09164,277.42055 160.21444,289.29776 157.83734,286.92066 167.33745,277.42056 161.39884,271.48195 Z" />
      </g>
      <path
         d="M -22.73325,191.66 V 193.53036 Q -22.73325,193.91486 -22.883142,194.25375 -23.026513,194.59914 -23.280674,194.85331 -23.534835,195.10747 -23.880235,195.25084 -24.219115,195.40073 -24.603617,195.40073 -24.988114,195.40073 -25.333514,195.25084 -25.672394,195.10747 -25.926555,194.85331 -26.180717,194.59914 -26.330608,194.25375 -26.473979,193.91486 -26.473979,193.53036 V 191.66 Z M -20.862888,187.92579 H -22.73325 V 189.79616 H -26.473979 V 187.92579 H -28.337826 V 193.53036 Q -28.337826,194.30588 -28.044564,194.98364 -27.7513,195.66792 -27.249499,196.17624 -26.741177,196.68457 -26.063412,196.97783 -25.379131,197.27109 -24.603617,197.27109 -23.828098,197.27109 -23.150339,196.97783 -22.466058,196.68457 -21.957736,196.17624 -21.449413,195.66792 -21.156151,194.98364 -20.862888,194.30588 -20.862888,193.53036 Z"
         style="font-style:normal;font-variant:normal;font-weight:normal;font-stretch:normal;font-size:23.98888969px;line-height:1000%;font-family:Righteous;-inkscape-font-specification:Righteous;text-align:center;letter-spacing:0.00529167px;word-spacing:0px;text-anchor:middle;fill:#607d8b;fill-opacity:1;stroke:none;stroke-width:0.14720637px;stroke-linecap:butt;stroke-linejoin:miter;stroke-opacity:1"
         id="path1826"
         inkscape:connector-curvature="0" />
      <g
         id="g1834"
         transform="translate(2e-6,1.0583312)"
         style="fill:#607d8b;stroke:none">
        <path
           inkscape:connector-curvature="0"
           id="path1828"
           style="font-style:normal;font-variant:normal;font-weight:normal;font-stretch:normal;font-size:23.98888969px;line-height:1000%;font-family:Righteous;-inkscape-font-specification:Righteous;text-align:center;letter-spacing:0.00529167px;word-spacing:0px;text-anchor:middle;fill:#607d8b;fill-opacity:1;stroke:none;stroke-width:0.14038888px;stroke-linecap:butt;stroke-linejoin:miter;stroke-opacity:1"
           d="M -25.663144,211.09436 Q -25.663144,211.31811 -25.582344,211.51699 -25.501552,211.70965 -25.358601,211.85261 -25.215658,211.99556 -25.022983,212.07635 -24.830315,212.16337 -24.606565,212.16337 -24.389045,212.16337 -24.190154,212.07635 -23.997486,211.99556 -23.848326,211.85261 -23.705376,211.70965 -23.61836,211.51699 -23.537567,211.31811 -23.537567,211.09436 -23.537567,210.87682 -23.61836,210.68417 -23.705376,210.4915 -23.848326,210.34854 -23.997486,210.20559 -24.190154,210.1248 -24.389045,210.03778 -24.606565,210.03778 -24.830315,210.03778 -25.022983,210.1248 -25.215658,210.20559 -25.358601,210.34854 -25.501552,210.4915 -25.582344,210.68417 -25.663144,210.87682 -25.663144,211.09436 Z" />
        <path
           d="M -19.582762,211.09436 Q -19.582762,211.31811 -19.501962,211.51699 -19.42117,211.70965 -19.278219,211.85261 -19.135276,211.99556 -18.942601,212.07635 -18.749933,212.16337 -18.526183,212.16337 -18.308663,212.16337 -18.109772,212.07635 -17.917104,211.99556 -17.767944,211.85261 -17.624994,211.70965 -17.537978,211.51699 -17.457185,211.31811 -17.457185,211.09436 -17.457185,210.87682 -17.537978,210.68417 -17.624994,210.4915 -17.767944,210.34854 -17.917104,210.20559 -18.109772,210.1248 -18.308663,210.03778 -18.526183,210.03778 -18.749933,210.03778 -18.942601,210.1248 -19.135276,210.20559 -19.278219,210.34854 -19.42117,210.4915 -19.501962,210.68417 -19.582762,210.87682 -19.582762,211.09436 Z"
           style="font-style:normal;font-variant:normal;font-weight:normal;font-stretch:normal;font-size:23.98888969px;line-height:1000%;font-family:Righteous;-inkscape-font-specification:Righteous;text-align:center;letter-spacing:0.00529167px;word-spacing:0px;text-anchor:middle;fill:#607d8b;fill-opacity:1;stroke:none;stroke-width:0.14038888px;stroke-linecap:butt;stroke-linejoin:miter;stroke-opacity:1"
           id="path1830"
           inkscape:connector-curvature="0" />
        <path
           inkscape:connector-curvature="0"
           id="path1832"
           style="font-style:normal;font-variant:normal;font-weight:normal;font-stretch:normal;font-size:23.98888969px;line-height:1000%;font-family:Righteous;-inkscape-font-specification:Righteous;text-align:center;letter-spacing:0.00529167px;word-spacing:0px;text-anchor:middle;fill:#607d8b;fill-opacity:1;stroke:none;stroke-width:0.14038888px;stroke-linecap:butt;stroke-linejoin:miter;stroke-opacity:1"
           d="M -31.74353,211.09436 Q -31.74353,211.31811 -31.66273,211.51699 -31.581938,211.70965 -31.438987,211.85261 -31.296044,211.99556 -31.103369,212.07635 -30.910701,212.16337 -30.686951,212.16337 -30.469431,212.16337 -30.27054,212.07635 -30.077872,211.99556 -29.928712,211.85261 -29.785762,211.70965 -29.698746,211.51699 -29.617953,211.31811 -29.617953,211.09436 -29.617953,210.87682 -29.698746,210.68417 -29.785762,210.4915 -29.928712,210.34854 -30.077872,210.20559 -30.27054,210.1248 -30.469431,210.03778 -30.686951,210.03778 -30.910701,210.03778 -31.103369,210.1248 -31.296044,210.20559 -31.438987,210.34854 -31.581938,210.4915 -31.66273,210.68417 -31.74353,210.87682 -31.74353,211.09436 Z" />
      </g>
      <g
         id="g1844"
         transform="translate(0.0467725,1.0583356)"
         style="fill:#607d8b;stroke:none">
        <path
           inkscape:connector-curvature="0"
           id="path1836"
           style="font-style:normal;font-variant:normal;font-weight:normal;font-stretch:normal;font-size:23.98888969px;line-height:1000%;font-family:Righteous;-inkscape-font-specification:Righteous;text-align:center;letter-spacing:0.00529167px;word-spacing:0px;text-anchor:middle;fill:#607d8b;fill-opacity:1;stroke:none;stroke-width:0.14038888px;stroke-linecap:butt;stroke-linejoin:miter;stroke-opacity:1"
           d="M -28.75011,215.34554 Q -28.75011,215.56929 -28.66931,215.76817 -28.588518,215.96083 -28.445567,216.10379 -28.302624,216.24674 -28.109949,216.32753 -27.917281,216.41455 -27.693531,216.41455 -27.476011,216.41455 -27.27712,216.32753 -27.084452,216.24674 -26.935292,216.10379 -26.792342,215.96083 -26.705326,215.76817 -26.624533,215.56929 -26.624533,215.34554 -26.624533,215.128 -26.705326,214.93535 -26.792342,214.74268 -26.935292,214.59972 -27.084452,214.45677 -27.27712,214.37598 -27.476011,214.28896 -27.693531,214.28896 -27.917281,214.28896 -28.109949,214.37598 -28.302624,214.45677 -28.445567,214.59972 -28.588518,214.74268 -28.66931,214.93535 -28.75011,215.128 -28.75011,215.34554 Z" />
        <path
           d="M -22.669724,215.34554 Q -22.669724,215.56929 -22.588924,215.76817 -22.508132,215.96083 -22.365181,216.10379 -22.222238,216.24674 -22.029563,216.32753 -21.836895,216.41455 -21.613145,216.41455 -21.395625,216.41455 -21.196734,216.32753 -21.004066,216.24674 -20.854906,216.10379 -20.711956,215.96083 -20.62494,215.76817 -20.544147,215.56929 -20.544147,215.34554 -20.544147,215.128 -20.62494,214.93535 -20.711956,214.74268 -20.854906,214.59972 -21.004066,214.45677 -21.196734,214.37598 -21.395625,214.28896 -21.613145,214.28896 -21.836895,214.28896 -22.029563,214.37598 -22.222238,214.45677 -22.365181,214.59972 -22.508132,214.74268 -22.588924,214.93535 -22.669724,215.128 -22.669724,215.34554 Z"
           style="font-style:normal;font-variant:normal;font-weight:normal;font-stretch:normal;font-size:23.98888969px;line-height:1000%;font-family:Righteous;-inkscape-font-specification:Righteous;text-align:center;letter-spacing:0.00529167px;word-spacing:0px;text-anchor:middle;fill:#607d8b;fill-opacity:1;stroke:none;stroke-width:0.14038888px;stroke-linecap:butt;stroke-linejoin:miter;stroke-opacity:1"
           id="path1838"
           inkscape:connector-curvature="0" />
        <path
           inkscape:connector-curvature="0"
           id="path1840"
           style="font-style:normal;font-variant:normal;font-weight:normal;font-stretch:normal;font-size:23.98888969px;line-height:1000%;font-family:Righteous;-inkscape-font-specification:Righteous;text-align:center;letter-spacing:0.00529167px;word-spacing:0px;text-anchor:middle;fill:#607d8b;fill-opacity:1;stroke:none;stroke-width:0.14038888px;stroke-linecap:butt;stroke-linejoin:miter;stroke-opacity:1"
           d="M -34.830496,215.34554 Q -34.830496,215.56929 -34.749696,215.76817 -34.668904,215.96083 -34.525953,216.10379 -34.38301,216.24674 -34.190335,216.32753 -33.997667,216.41455 -33.773917,216.41455 -33.556397,216.41455 -33.357506,216.32753 -33.164838,216.24674 -33.015678,216.10379 -32.872728,215.96083 -32.785712,215.76817 -32.704919,215.56929 -32.704919,215.34554 -32.704919,215.128 -32.785712,214.93535 -32.872728,214.74268 -33.015678,214.59972 -33.164838,214.45677 -33.357506,214.37598 -33.556397,214.28896 -33.773917,214.28896 -33.997667,214.28896 -34.190335,214.37598 -34.38301,214.45677 -34.525953,214.59972 -34.668904,214.74268 -34.749696,214.93535 -34.830496,215.128 -34.830496,215.34554 Z" />
        <path
           inkscape:connector-curvature="0"
           id="path1842"
           style="font-style:normal;font-variant:normal;font-weight:normal;font-stretch:normal;font-size:23.98888969px;line-height:1000%;font-family:Righteous;-inkscape-font-specification:Righteous;text-align:center;letter-spacing:0.00529167px;word-spacing:0px;text-anchor:middle;fill:#607d8b;fill-opacity:1;stroke:none;stroke-width:0.14038888px;stroke-linecap:butt;stroke-linejoin:miter;stroke-opacity:1"
           d="M -16.589337,215.34554 Q -16.589337,215.56929 -16.508537,215.76817 -16.427745,215.96083 -16.284794,216.10379 -16.141851,216.24674 -15.949176,216.32753 -15.756508,216.41455 -15.532758,216.41455 -15.315238,216.41455 -15.116347,216.32753 -14.923679,216.24674 -14.774519,216.10379 -14.631569,215.96083 -14.544553,215.76817 -14.46376,215.56929 -14.46376,215.34554 -14.46376,215.128 -14.544553,214.93535 -14.631569,214.74268 -14.774519,214.59972 -14.923679,214.45677 -15.116347,214.37598 -15.315238,214.28896 -15.532758,214.28896 -15.756508,214.28896 -15.949176,214.37598 -16.141851,214.45677 -16.284794,214.59972 -16.427745,214.74268 -16.508537,214.93535 -16.589337,215.128 -16.589337,215.34554 Z" />
      </g>
      <g
         id="g1856"
         transform="translate(0,1.0583333)"
         style="fill:#607d8b;stroke:none">
        <path
           inkscape:connector-curvature="0"
           id="path1846"
           style="font-style:normal;font-variant:normal;font-weight:normal;font-stretch:normal;font-size:23.98888969px;line-height:1000%;font-family:Righteous;-inkscape-font-specification:Righteous;text-align:center;letter-spacing:0.00529167px;word-spacing:0px;text-anchor:middle;fill:#607d8b;fill-opacity:1;stroke:none;stroke-width:0.14038888px;stroke-linecap:butt;stroke-linejoin:miter;stroke-opacity:1"
           d="M -25.663144,219.59672 Q -25.663144,219.82047 -25.582344,220.01935 -25.501552,220.21201 -25.358601,220.35497 -25.215658,220.49792 -25.022983,220.57871 -24.830315,220.66573 -24.606565,220.66573 -24.389045,220.66573 -24.190154,220.57871 -23.997486,220.49792 -23.848326,220.35497 -23.705376,220.21201 -23.61836,220.01935 -23.537567,219.82047 -23.537567,219.59672 -23.537567,219.37918 -23.61836,219.18653 -23.705376,218.99386 -23.848326,218.8509 -23.997486,218.70795 -24.190154,218.62716 -24.389045,218.54014 -24.606565,218.54014 -24.830315,218.54014 -25.022983,218.62716 -25.215658,218.70795 -25.358601,218.8509 -25.501552,218.99386 -25.582344,219.18653 -25.663144,219.37918 -25.663144,219.59672 Z" />
        <path
           d="M -19.582762,219.59672 Q -19.582762,219.82047 -19.501962,220.01935 -19.42117,220.21201 -19.278219,220.35497 -19.135276,220.49792 -18.942601,220.57871 -18.749933,220.66573 -18.526183,220.66573 -18.308663,220.66573 -18.109772,220.57871 -17.917104,220.49792 -17.767944,220.35497 -17.624994,220.21201 -17.537978,220.01935 -17.457185,219.82047 -17.457185,219.59672 -17.457185,219.37918 -17.537978,219.18653 -17.624994,218.99386 -17.767944,218.8509 -17.917104,218.70795 -18.109772,218.62716 -18.308663,218.54014 -18.526183,218.54014 -18.749933,218.54014 -18.942601,218.62716 -19.135276,218.70795 -19.278219,218.8509 -19.42117,218.99386 -19.501962,219.18653 -19.582762,219.37918 -19.582762,219.59672 Z"
           style="font-style:normal;font-variant:normal;font-weight:normal;font-stretch:normal;font-size:23.98888969px;line-height:1000%;font-family:Righteous;-inkscape-font-specification:Righteous;text-align:center;letter-spacing:0.00529167px;word-spacing:0px;text-anchor:middle;fill:#607d8b;fill-opacity:1;stroke:none;stroke-width:0.14038888px;stroke-linecap:butt;stroke-linejoin:miter;stroke-opacity:1"
           id="path1848"
           inkscape:connector-curvature="0" />
        <path
           inkscape:connector-curvature="0"
           id="path1850"
           style="font-style:normal;font-variant:normal;font-weight:normal;font-stretch:normal;font-size:23.98888969px;line-height:1000%;font-family:Righteous;-inkscape-font-specification:Righteous;text-align:center;letter-spacing:0.00529167px;word-spacing:0px;text-anchor:middle;fill:#607d8b;fill-opacity:1;stroke:none;stroke-width:0.14038888px;stroke-linecap:butt;stroke-linejoin:miter;stroke-opacity:1"
           d="M -31.74353,219.59672 Q -31.74353,219.82047 -31.66273,220.01935 -31.581938,220.21201 -31.438987,220.35497 -31.296044,220.49792 -31.103369,220.57871 -30.910701,220.66573 -30.686951,220.66573 -30.469431,220.66573 -30.27054,220.57871 -30.077872,220.49792 -29.928712,220.35497 -29.785762,220.21201 -29.698746,220.01935 -29.617953,219.82047 -29.617953,219.59672 -29.617953,219.37918 -29.698746,219.18653 -29.785762,218.99386 -29.928712,218.8509 -30.077872,218.70795 -30.27054,218.62716 -30.469431,218.54014 -30.686951,218.54014 -30.910701,218.54014 -31.103369,218.62716 -31.296044,218.70795 -31.438987,218.8509 -31.581938,218.99386 -31.66273,219.18653 -31.74353,219.37918 -31.74353,219.59672 Z" />
        <path
           d="M -13.502376,219.59672 Q -13.502376,219.82047 -13.421576,220.01935 -13.340784,220.21201 -13.197833,220.35497 -13.05489,220.49792 -12.862215,220.57871 -12.669547,220.66573 -12.445797,220.66573 -12.228277,220.66573 -12.029386,220.57871 -11.836718,220.49792 -11.687558,220.35497 -11.544608,220.21201 -11.457592,220.01935 -11.376799,219.82047 -11.376799,219.59672 -11.376799,219.37918 -11.457592,219.18653 -11.544608,218.99386 -11.687558,218.8509 -11.836718,218.70795 -12.029386,218.62716 -12.228277,218.54014 -12.445797,218.54014 -12.669547,218.54014 -12.862215,218.62716 -13.05489,218.70795 -13.197833,218.8509 -13.340784,218.99386 -13.421576,219.18653 -13.502376,219.37918 -13.502376,219.59672 Z"
           style="font-style:normal;font-variant:normal;font-weight:normal;font-stretch:normal;font-size:23.98888969px;line-height:1000%;font-family:Righteous;-inkscape-font-specification:Righteous;text-align:center;letter-spacing:0.00529167px;word-spacing:0px;text-anchor:middle;fill:#607d8b;fill-opacity:1;stroke:none;stroke-width:0.14038888px;stroke-linecap:butt;stroke-linejoin:miter;stroke-opacity:1"
           id="path1852"
           inkscape:connector-curvature="0" />
        <path
           d="M -37.823912,219.59672 Q -37.823912,219.82047 -37.743112,220.01935 -37.66232,220.21201 -37.519369,220.35497 -37.376426,220.49792 -37.183751,220.57871 -36.991083,220.66573 -36.767333,220.66573 -36.549813,220.66573 -36.350922,220.57871 -36.158254,220.49792 -36.009094,220.35497 -35.866144,220.21201 -35.779128,220.01935 -35.698335,219.82047 -35.698335,219.59672 -35.698335,219.37918 -35.779128,219.18653 -35.866144,218.99386 -36.009094,218.8509 -36.158254,218.70795 -36.350922,218.62716 -36.549813,218.54014 -36.767333,218.54014 -36.991083,218.54014 -37.183751,218.62716 -37.376426,218.70795 -37.519369,218.8509 -37.66232,218.99386 -37.743112,219.18653 -37.823912,219.37918 -37.823912,219.59672 Z"
           style="font-style:normal;font-variant:normal;font-weight:normal;font-stretch:normal;font-size:23.98888969px;line-height:1000%;font-family:Righteous;-inkscape-font-specification:Righteous;text-align:center;letter-spacing:0.00529167px;word-spacing:0px;text-anchor:middle;fill:#607d8b;fill-opacity:1;stroke:none;stroke-width:0.14038888px;stroke-linecap:butt;stroke-linejoin:miter;stroke-opacity:1"
           id="path1854"
           inkscape:connector-curvature="0" />
      </g>
    </g>
  </g>
</svg>
